PathFileType	4	(X/Y/Z)	walk-thru1-3-TP.trc
DataRate	CameraRate	NumFrames	NumMarkers	Units	OrigDataRate	OrigDataStartFrame	OrigNumFrames
120.00	120.00	       6	60	mm	120.00	133	       528
Frame#	Time	Top.Head			Front.Head			Rear.Head			Jaw			C7			R.Clavicle			L.Clavicle			R.Shoulder			L.Shoulder			R.Scapula			L.Scapula			R.Scap.Inf			R.Biceps.Lateral			R.Elbow			R.Elbow.Medial			R.Forearm			R.Ulna			R.Radius			R.Wrist			R.Thumb.M1			R.Thumb.M2			R.Thumb.M3			R.Finger3.M1			R.Finger3.M2			R.Finger3.M3			L.Biceps.Lateral			L.Elbow			L.Elbow.Medial			L.Forearm			L.Ulna			L.Radius			L.Wrist			L.Thumb.M1			L.Thumb.M2			L.Thumb.M3			L.Finger3.M1			L.Finger3.M2			L.Finger3.M3			V.Sacral			R.ASIS			L.ASIS			R.Thigh			R.Thigh.Front			R.Knee			R.Knee.Medial			R.Shank			R.Ankle			R.Ankle.Medial			R.Heel			R.Toe			R.MedFoot			L.Thigh			L.Knee			L.Knee.Medial			L.Shank			L.Ankle			L.Ankle.Medial			L.Heel			L.Toe			L.MedFoot			V_mid_ASIS			V_R_Knee_JC			V_L_Knee_JC			V_R_Elbow_JC			V_L_Elbow_JC			V_R_Ankle_JC			V_L_Ankle_JC			V_R_Wrist_JC			V_L_Wrist_JC			V_R_ScaTrpz_1stMC_JC			V_R_1stMC_1stPP_JC			V_R_1stPP_1stDP_JC			V_R_LunCap_3rdMC_JC			V_R_3rdMC_3rdPP_JC			V_R_3rdPP_3rdMP_JC			V_R_3rdMP_3rdDP_JC			V_L_ScaTrpz_1stMC_JC			V_L_1stMC_1stPP_JC			V_L_1stPP_1stDP_JC			V_L_LunCap_3rdMC_JC			V_L_3rdMC_3rdPP_JC			V_L_3rdPP_3rdMP_JC			V_L_3rdMP_3rdPP_JC			V_ROOT_JC			V_R_Hip_JC			V_L_Hip_JC			V_R_GlenHum_JC			V_L_GlenHum_JC			V_ForeHead_Ctr			V_Vertex			V_Sagit_Lambdoid_Suture			V_R_FrontoTemp			V_L_FrontoTemporal			V_R_ParietalOccip			V_L_ParietalOcciptal			V_R_Temporal			V_L_Temporal			V_mid_FrontRearHead			V_mid_RLGlenHumCtrs			V_C7_vert			V_C1_vert			V_Mid_Hip			
		X1	Y1	Z1	X2	Y2	Z2	X3	Y3	Z3	X4	Y4	Z4	X5	Y5	Z5	X6	Y6	Z6	X7	Y7	Z7	X8	Y8	Z8	X9	Y9	Z9	X10	Y10	Z10	X11	Y11	Z11	X12	Y12	Z12	X13	Y13	Z13	X14	Y14	Z14	X15	Y15	Z15	X16	Y16	Z16	X17	Y17	Z17	X18	Y18	Z18	X19	Y19	Z19	X20	Y20	Z20	X21	Y21	Z21	X22	Y22	Z22	X23	Y23	Z23	X24	Y24	Z24	X25	Y25	Z25	X26	Y26	Z26	X27	Y27	Z27	X28	Y28	Z28	X29	Y29	Z29	X30	Y30	Z30	X31	Y31	Z31	X32	Y32	Z32	X33	Y33	Z33	X34	Y34	Z34	X35	Y35	Z35	X36	Y36	Z36	X37	Y37	Z37	X38	Y38	Z38	X39	Y39	Z39	X40	Y40	Z40	X41	Y41	Z41	X42	Y42	Z42	X43	Y43	Z43	X44	Y44	Z44	X45	Y45	Z45	X46	Y46	Z46	X47	Y47	Z47	X48	Y48	Z48	X49	Y49	Z49	X50	Y50	Z50	X51	Y51	Z51	X52	Y52	Z52	X53	Y53	Z53	X54	Y54	Z54	X55	Y55	Z55	X56	Y56	Z56	X57	Y57	Z57	X58	Y58	Z58	X59	Y59	Z59	X60	Y60	Z60	

133	1.100	967.50232	-20.06635	1558.77917	866.35712	-15.53460	1459.91077	1078.81677	-15.68406	1477.19849	895.44940	0.82831	1318.84070	1095.02563	1.85254	1366.07739	1013.83618	114.98763	1279.61523	991.35907	-99.43317	1286.99805	1063.13538	189.97177	1274.66089	1039.81628	-195.04724	1285.64343	1144.20117	86.73774	1288.34851	1137.93823	-96.92134	1289.50244	1186.27930	69.51295	1205.43738	1023.86951	244.31917	1136.51514	1024.31152	269.98792	973.69128	1050.86963	200.25526	949.89648	932.50824	262.34738	918.03473	941.55042	288.39978	829.67310	866.22589	244.97949	799.53992	863.84760	284.10223	765.43610	829.75208	247.83858	755.90338	809.60022	232.86717	724.10974	793.23401	223.77443	686.05804	827.25909	300.80170	696.62616	814.72791	279.48825	649.11334	820.07355	256.46671	614.04187	1054.52368	-256.81454	1139.98364	1099.67102	-264.25525	993.79260	1121.49011	-186.17143	986.87598	1011.49408	-245.09290	932.72449	1018.69000	-279.09586	840.01447	965.58533	-220.93733	802.29413	955.66827	-269.12030	777.27490	932.89191	-226.80040	768.87567	918.38763	-204.70065	733.01971	906.99677	-198.31406	683.60706	919.94849	-270.61725	696.11725	914.70929	-259.71521	657.51587	920.27795	-228.88954	620.17633	1195.28967	-13.83800	900.06238	1011.90363	153.84987	965.67511	1004.00983	-162.55594	948.56598	1017.33093	177.74045	574.39142	956.07642	106.32513	482.22256	1009.85181	137.60236	434.92447	998.77863	25.48666	429.99808	1035.02771	79.70412	262.97000	1142.04773	84.29261	64.25346	1121.15027	-4.38965	82.95903	1199.34717	26.36743	42.30079	999.09711	67.35060	36.90079	1054.09509	22.42180	62.50014	921.79901	-188.15503	587.42969	861.43744	-163.41071	457.55954	850.62775	-39.54625	445.27637	879.91388	-108.84874	262.52924	965.07892	-133.53139	77.64470	950.31934	-44.08839	97.06757	1025.77332	-83.91335	55.51194	827.52081	-92.93046	48.56433	876.10706	-62.23605	72.26803																																																																																																																															
134	1.108	963.71313	-20.07130	1557.89502	861.51361	-15.04821	1458.49109	1074.36060	-16.18011	1476.63416	890.73474	-0.03095	1317.84595	1090.57678	1.58177	1365.63623	1008.81934	114.41170	1279.22852	986.13196	-100.47514	1286.28442	1057.98938	189.48727	1273.46838	1034.91199	-195.67639	1284.12524	1139.03564	86.02645	1287.72925	1133.51294	-97.02738	1288.20251	1181.47595	68.72967	1204.67737	1019.92676	243.99680	1136.44507	1018.49780	268.28751	973.12982	1046.11108	200.32310	949.77557	927.19635	262.27136	918.54053	935.01410	287.36584	829.47058	860.28876	245.17809	800.66931	856.62787	284.77786	766.16003	823.57166	247.71213	757.06500	803.41461	231.82753	724.23401	785.70233	223.63533	687.07251	820.63226	299.89880	697.82294	808.41052	278.11304	649.42810	811.93433	256.03439	614.89478	1050.20215	-257.03378	1138.71680	1095.62036	-264.65033	992.99487	1117.76062	-186.10646	986.04828	1007.61920	-244.01857	932.28894	1014.86432	-279.05807	839.24005	960.70605	-221.09863	801.99524	951.13287	-269.12842	776.97314	927.29517	-226.86806	768.67218	912.22546	-205.29321	732.95734	901.52130	-198.42357	682.84717	916.00684	-269.78790	695.89404	909.47247	-259.09814	655.83649	914.57343	-228.69632	619.66418	1190.44104	-14.13280	899.01422	1005.51825	152.66679	965.29456	998.65356	-162.82552	948.00897	1013.93237	177.72905	573.53412	954.02570	105.06882	480.84406	1006.86078	137.00034	434.32581	995.16571	27.24522	429.19107	1033.16797	80.92469	262.40741	1141.74963	84.48380	64.57279	1121.05298	-4.57154	82.99590	1199.27515	26.31475	42.34539	998.60809	67.82513	37.04494	1054.01868	22.51008	62.14176	916.80994	-188.18169	585.98535	854.92279	-162.01234	457.35019	844.94482	-38.46186	445.27179	869.30542	-106.97578	262.51752	948.27478	-131.66992	74.93934	937.72711	-41.44926	94.44815	1008.70343	-81.40136	51.87503	811.07123	-89.75417	48.63376	860.40216	-59.82106	71.42825																																																																																																																															
135	1.117	958.52289	-20.98309	1557.89917	856.77307	-15.54153	1458.40674	1069.89661	-16.71699	1476.28674	886.67053	-0.05059	1318.08862	1086.07703	-0.33718	1365.68909	1004.60071	114.12268	1278.51831	981.17798	-101.47299	1285.38916	1054.52856	189.67039	1273.08728	1030.01746	-195.67274	1284.28992	1133.94897	86.17511	1286.84692	1128.78735	-96.81055	1287.29932	1176.73584	68.18480	1203.91418	1014.57367	243.72343	1135.63550	1013.63995	268.68280	972.80243	1041.78174	199.64977	949.91180	921.18970	260.72043	918.53088	927.39526	287.31866	829.56122	853.36493	244.54967	800.54016	850.40942	283.81622	767.08185	816.60034	246.98398	757.18073	796.68463	230.86102	726.23370	778.52631	222.91054	688.32135	812.71704	299.98672	698.73785	800.29108	278.13266	650.18488	804.84082	256.07654	615.65027	1045.38916	-255.74858	1137.80151	1090.16296	-264.23254	992.36658	1112.41455	-185.85637	985.55286	1002.45868	-245.75044	932.04291	1010.46875	-278.76740	838.37329	954.28809	-222.70966	802.81073	946.02856	-269.98712	776.10522	922.57837	-227.63445	768.75781	907.74573	-204.20593	732.38202	897.72839	-197.04457	682.09949	911.32587	-268.90213	693.61920	905.02960	-257.36893	655.65405	909.38745	-226.80171	619.42706	1185.05273	-15.18205	898.48914	1001.85162	153.65007	964.73291	993.41235	-162.86574	946.70349	1010.58472	177.71997	572.70721	951.68286	105.34618	480.39850	1004.94409	137.07086	433.59109	993.79797	27.07514	428.43991	1032.37219	79.54744	261.44305	1141.62354	84.50105	64.63780	1119.89063	-5.20402	82.10614	1199.32373	26.36992	42.47823	998.60809	67.82513	37.04494	1054.03882	22.87569	62.39485	912.24445	-188.48401	585.05341	849.75256	-160.12962	456.74228	839.50916	-37.56391	444.76743	859.45319	-103.19359	263.04135	932.99146	-130.58522	73.18553	921.93549	-39.83429	93.02488	993.80914	-80.62822	47.77710	794.77026	-86.32245	48.42126	845.20410	-57.51392	71.24746																																																																																																																															
136	1.125	954.44629	-20.68794	1557.23877	853.05994	-15.85066	1458.56580	1065.25818	-16.69994	1475.98901	881.62408	-1.16462	1317.53760	1081.94153	-0.20406	1364.44934	999.66016	112.88177	1278.03577	978.83075	-101.11348	1285.29541	1049.48157	189.08405	1272.28333	1025.45886	-196.43860	1283.53943	1129.68848	85.21452	1285.84167	1124.30957	-98.60806	1287.02173	1172.64368	67.92480	1203.04211	1010.22479	242.71799	1135.76294	1008.56152	267.65488	972.32709	1034.38379	199.50450	947.53833	916.05676	260.01764	919.03949	921.93182	286.87555	829.65277	847.49561	242.88177	800.86407	844.13422	282.53342	767.23724	810.17261	246.12015	757.85651	789.02393	230.92754	727.00098	771.36682	222.65227	689.46338	805.90942	299.04120	700.00848	793.42523	279.19949	650.34473	796.76593	254.58002	616.30609	1039.84900	-256.41440	1136.84412	1086.11987	-264.72095	991.30493	1108.08386	-186.89963	984.94434	998.21423	-246.06854	931.15936	1004.98785	-279.29175	837.92224	949.39417	-222.65117	801.67072	941.07684	-270.27823	775.47479	917.15332	-227.22499	768.01599	902.75903	-204.63786	732.16827	892.59467	-195.76489	682.94006	906.40381	-269.66614	693.59576	898.38147	-256.77826	655.02771	905.10132	-225.12848	618.93884	1180.40393	-15.35816	897.89490	997.32623	153.00491	963.48663	988.35370	-162.94501	945.47620	1006.53210	176.59381	573.17957	948.41461	105.54006	479.73874	1002.32513	137.42715	432.90152	990.32745	25.87186	428.25320	1030.78088	79.57477	261.32312	1141.44263	84.43661	64.65591	1119.70166	-5.06706	82.06091	1199.29675	26.14574	42.66615	998.37939	67.51096	37.06421	1053.79504	22.60536	62.26889	906.58667	-187.73083	584.54938	843.76044	-160.55731	456.68396	835.26697	-36.53695	445.14584	848.88031	-102.16972	262.64603	918.01898	-129.13708	71.28527	906.74731	-39.13630	90.97892	977.55817	-81.08457	45.21040	779.35693	-83.69637	48.36769	830.12024	-54.16709	70.98182																																																																																																																															
137	1.133	950.12152	-22.47700	1556.78833	847.54858	-17.12810	1457.76965	1060.85095	-17.66556	1475.22351	876.53522	-1.71308	1317.27490	1077.99658	-0.61086	1363.38147	995.16119	112.47629	1277.53979	974.32263	-100.86493	1284.96423	1045.19409	188.16719	1272.18457	1020.82922	-197.05217	1282.15076	1124.66260	85.67664	1285.22925	1119.21106	-99.12870	1286.03540	1167.96838	67.21971	1202.46631	1005.41815	242.94475	1135.00183	1004.43640	267.24875	972.67126	1030.24902	198.36934	947.68945	910.81769	259.55634	918.99158	916.77643	285.77094	829.75385	841.97754	242.37108	800.76959	838.62445	282.25461	767.61523	803.77063	245.08908	757.91553	782.79236	230.05916	727.31024	764.77051	220.83513	690.15192	799.82617	297.47827	700.73566	786.08386	276.55295	651.68835	788.95789	254.91641	617.95111	1036.35901	-256.57721	1136.02551	1080.75854	-265.60596	990.20111	1103.42212	-187.86365	984.30872	992.19958	-247.05057	930.69415	1000.44128	-279.78702	837.60992	943.99121	-223.64589	802.17084	936.33832	-270.19547	774.60522	912.28558	-226.58951	766.69861	897.79102	-204.44218	732.01514	888.65479	-195.13638	681.52319	900.73840	-268.45175	692.25793	894.32111	-256.27600	653.61993	900.76703	-223.86057	618.24463	1175.35083	-15.84722	897.46399	991.46332	152.75253	963.42822	983.21814	-163.30528	944.87354	1002.96393	176.38615	571.42279	945.00146	104.91776	478.24435	999.13361	135.88876	432.02893	989.35388	24.53263	428.01468	1029.85742	79.66138	260.74799	1141.26660	84.36650	64.94016	1120.22314	-4.20722	83.15533	1199.04822	26.07130	42.84810	998.37939	67.51096	37.06421	1053.79504	22.60536	62.26889	901.50092	-187.48050	583.50598	838.66309	-158.97153	456.04138	830.26843	-35.56842	443.88754	838.90204	-100.68924	262.56549	903.28394	-127.07664	69.15424	893.74017	-37.19239	89.96896	963.11957	-79.37992	42.50481	764.66602	-80.73785	48.60872	815.84058	-53.43831	69.37309																																																																																																																															
138	1.142	946.44806	-22.37146	1556.09888	844.29120	-16.64095	1457.20996	1056.44055	-18.46228	1473.93604	871.90271	-2.33194	1316.95056	1072.47839	-0.43533	1362.78247	990.26642	111.77348	1277.19031	969.08099	-101.96535	1284.11499	1041.24854	187.54204	1271.37488	1016.13837	-197.76079	1282.21899	1120.02698	84.53743	1284.50989	1114.42859	-99.78214	1285.74561	1162.83887	66.98391	1201.71997	1000.09692	242.29593	1135.09924	999.28436	266.15518	971.37494	1025.92065	196.14458	946.30914	905.24536	259.44656	918.62286	910.77850	284.52386	829.27740	835.57141	239.88503	801.55292	831.14349	281.37476	768.51099	797.65900	243.85094	758.93762	776.30878	227.84045	727.78815	758.48291	220.26521	691.15552	793.51031	296.64343	701.18610	778.06824	275.61133	652.91577	782.38538	253.38039	618.14130	1031.20984	-258.66370	1135.18250	1075.49707	-266.35471	989.31226	1097.56030	-187.92523	983.61505	987.52838	-247.75281	930.21661	995.34448	-279.97684	837.02356	937.98065	-222.88417	801.63245	930.93933	-269.69690	773.09473	906.15338	-227.35423	766.76569	892.84760	-203.91557	730.84131	885.07495	-193.09616	680.78827	896.40625	-267.74988	692.32776	889.34399	-254.82092	652.56091	896.23352	-222.94911	617.59674	1170.26282	-16.62397	897.08600	986.21228	151.42073	962.58112	978.13660	-163.52980	943.53558	1000.43909	176.45198	571.43146	941.95068	104.04882	477.54706	997.02087	135.95404	430.79205	987.67828	24.72294	427.19540	1028.41333	80.20937	260.14084	1141.37610	84.25133	65.12294	1119.48743	-5.73766	82.22018	1199.17249	26.04177	42.97715	998.25220	67.66224	37.07280	1053.79504	22.60536	62.26889	896.46942	-185.96292	581.70801	833.87726	-157.46739	455.18958	825.99646	-34.22728	443.11990	830.06866	-99.64939	261.87286	889.46307	-125.48788	67.25513	879.76996	-35.04443	87.36615	948.66290	-78.85397	41.46030	750.26031	-78.26878	48.81971	802.41602	-51.35258	68.76396																																																																																																																															
